<mxfile host="app.diagrams.net" agent="Mozilla/5.0 (Windows NT 10.0; Win64; x64) AppleWebKit/537.36 (KHTML, like Gecko) Chrome/127.0.0.0 Safari/537.36 Edg/127.0.0.0" version="24.7.6" pages="2">
  <diagram name="Page-1" id="a8UIe7vdmMAAO8bH5ttX">
    <mxGraphModel dx="1500" dy="873" grid="1" gridSize="10" guides="1" tooltips="1" connect="1" arrows="1" fold="1" page="1" pageScale="1" pageWidth="827" pageHeight="1169" math="0" shadow="0">
      <root>
        <mxCell id="0" />
        <mxCell id="1" parent="0" />
        <mxCell id="h8VWl4SBBmZREgqOAzla-1" value="&lt;font style=&quot;font-size: 16px;&quot;&gt;Page&lt;/font&gt;&lt;div&gt;&lt;font style=&quot;font-size: 16px;&quot;&gt;1&lt;/font&gt;&lt;/div&gt;" style="verticalLabelPosition=middle;verticalAlign=middle;html=1;shape=offPageConnector;rounded=0;size=0.5;labelPosition=center;align=center;" vertex="1" parent="1">
          <mxGeometry x="41" y="40" width="60" height="60" as="geometry" />
        </mxCell>
        <mxCell id="h8VWl4SBBmZREgqOAzla-12" style="edgeStyle=orthogonalEdgeStyle;rounded=0;orthogonalLoop=1;jettySize=auto;html=1;exitX=1;exitY=0.5;exitDx=0;exitDy=0;exitPerimeter=0;entryX=0;entryY=0.5;entryDx=0;entryDy=0;" edge="1" parent="1" source="h8VWl4SBBmZREgqOAzla-2" target="h8VWl4SBBmZREgqOAzla-10">
          <mxGeometry relative="1" as="geometry" />
        </mxCell>
        <mxCell id="h8VWl4SBBmZREgqOAzla-2" value="Schedule?" style="strokeWidth=2;html=1;shape=mxgraph.flowchart.decision;whiteSpace=wrap;" vertex="1" parent="1">
          <mxGeometry x="21" y="124" width="100" height="100" as="geometry" />
        </mxCell>
        <mxCell id="h8VWl4SBBmZREgqOAzla-3" style="edgeStyle=orthogonalEdgeStyle;rounded=0;orthogonalLoop=1;jettySize=auto;html=1;exitX=0.5;exitY=1;exitDx=0;exitDy=0;entryX=0.5;entryY=0;entryDx=0;entryDy=0;entryPerimeter=0;" edge="1" parent="1" source="h8VWl4SBBmZREgqOAzla-1" target="h8VWl4SBBmZREgqOAzla-2">
          <mxGeometry relative="1" as="geometry" />
        </mxCell>
        <mxCell id="h8VWl4SBBmZREgqOAzla-14" style="edgeStyle=orthogonalEdgeStyle;rounded=0;orthogonalLoop=1;jettySize=auto;html=1;exitX=1;exitY=0.5;exitDx=0;exitDy=0;exitPerimeter=0;entryX=0;entryY=0.5;entryDx=0;entryDy=0;" edge="1" parent="1" source="h8VWl4SBBmZREgqOAzla-4" target="h8VWl4SBBmZREgqOAzla-13">
          <mxGeometry relative="1" as="geometry" />
        </mxCell>
        <mxCell id="h8VWl4SBBmZREgqOAzla-4" value="Events?" style="strokeWidth=2;html=1;shape=mxgraph.flowchart.decision;whiteSpace=wrap;" vertex="1" parent="1">
          <mxGeometry x="21" y="251" width="100" height="100" as="geometry" />
        </mxCell>
        <mxCell id="h8VWl4SBBmZREgqOAzla-5" style="edgeStyle=orthogonalEdgeStyle;rounded=0;orthogonalLoop=1;jettySize=auto;html=1;exitX=0.5;exitY=1;exitDx=0;exitDy=0;exitPerimeter=0;entryX=0.5;entryY=0;entryDx=0;entryDy=0;entryPerimeter=0;" edge="1" parent="1" source="h8VWl4SBBmZREgqOAzla-2" target="h8VWl4SBBmZREgqOAzla-4">
          <mxGeometry relative="1" as="geometry" />
        </mxCell>
        <mxCell id="h8VWl4SBBmZREgqOAzla-17" value="" style="edgeStyle=orthogonalEdgeStyle;rounded=0;orthogonalLoop=1;jettySize=auto;html=1;" edge="1" parent="1" source="h8VWl4SBBmZREgqOAzla-6" target="h8VWl4SBBmZREgqOAzla-16">
          <mxGeometry relative="1" as="geometry" />
        </mxCell>
        <mxCell id="h8VWl4SBBmZREgqOAzla-23" value="" style="edgeStyle=orthogonalEdgeStyle;rounded=0;orthogonalLoop=1;jettySize=auto;html=1;" edge="1" parent="1" source="h8VWl4SBBmZREgqOAzla-6" target="h8VWl4SBBmZREgqOAzla-22">
          <mxGeometry relative="1" as="geometry" />
        </mxCell>
        <mxCell id="h8VWl4SBBmZREgqOAzla-6" value="Profile?" style="strokeWidth=2;html=1;shape=mxgraph.flowchart.decision;whiteSpace=wrap;" vertex="1" parent="1">
          <mxGeometry x="21" y="379" width="100" height="100" as="geometry" />
        </mxCell>
        <mxCell id="h8VWl4SBBmZREgqOAzla-7" style="edgeStyle=orthogonalEdgeStyle;rounded=0;orthogonalLoop=1;jettySize=auto;html=1;exitX=0.5;exitY=1;exitDx=0;exitDy=0;exitPerimeter=0;entryX=0.5;entryY=0;entryDx=0;entryDy=0;entryPerimeter=0;" edge="1" parent="1" source="h8VWl4SBBmZREgqOAzla-4" target="h8VWl4SBBmZREgqOAzla-6">
          <mxGeometry relative="1" as="geometry" />
        </mxCell>
        <mxCell id="h8VWl4SBBmZREgqOAzla-8" value="No" style="text;html=1;align=center;verticalAlign=middle;resizable=0;points=[];autosize=1;strokeColor=none;fillColor=none;" vertex="1" parent="1">
          <mxGeometry x="71" y="218" width="40" height="30" as="geometry" />
        </mxCell>
        <mxCell id="h8VWl4SBBmZREgqOAzla-9" value="No" style="text;html=1;align=center;verticalAlign=middle;resizable=0;points=[];autosize=1;strokeColor=none;fillColor=none;" vertex="1" parent="1">
          <mxGeometry x="71" y="349" width="40" height="30" as="geometry" />
        </mxCell>
        <mxCell id="h8VWl4SBBmZREgqOAzla-25" style="edgeStyle=orthogonalEdgeStyle;rounded=0;orthogonalLoop=1;jettySize=auto;html=1;exitX=1;exitY=0.5;exitDx=0;exitDy=0;entryX=1;entryY=0.25;entryDx=0;entryDy=0;" edge="1" parent="1" source="h8VWl4SBBmZREgqOAzla-10" target="h8VWl4SBBmZREgqOAzla-1">
          <mxGeometry relative="1" as="geometry">
            <mxPoint x="360" y="60" as="targetPoint" />
            <Array as="points">
              <mxPoint x="360" y="174" />
              <mxPoint x="360" y="55" />
            </Array>
          </mxGeometry>
        </mxCell>
        <mxCell id="h8VWl4SBBmZREgqOAzla-10" value="Menampilkan&amp;nbsp;&lt;div&gt;Jadwal dan tempat&lt;div&gt;Syntax&lt;/div&gt;&lt;/div&gt;" style="shape=parallelogram;html=1;strokeWidth=2;perimeter=parallelogramPerimeter;whiteSpace=wrap;rounded=1;arcSize=12;size=0.23;" vertex="1" parent="1">
          <mxGeometry x="146" y="144" width="170" height="60" as="geometry" />
        </mxCell>
        <mxCell id="h8VWl4SBBmZREgqOAzla-24" style="edgeStyle=orthogonalEdgeStyle;rounded=0;orthogonalLoop=1;jettySize=auto;html=1;exitX=1;exitY=0.5;exitDx=0;exitDy=0;" edge="1" parent="1" source="h8VWl4SBBmZREgqOAzla-13">
          <mxGeometry relative="1" as="geometry">
            <mxPoint x="360" y="170" as="targetPoint" />
          </mxGeometry>
        </mxCell>
        <mxCell id="h8VWl4SBBmZREgqOAzla-13" value="Menampilkan&amp;nbsp;&lt;div&gt;Jadwal Events&lt;div&gt;Syntax&lt;/div&gt;&lt;/div&gt;" style="shape=parallelogram;html=1;strokeWidth=2;perimeter=parallelogramPerimeter;whiteSpace=wrap;rounded=1;arcSize=12;size=0.23;" vertex="1" parent="1">
          <mxGeometry x="146" y="271" width="170" height="60" as="geometry" />
        </mxCell>
        <mxCell id="h8VWl4SBBmZREgqOAzla-27" value="" style="edgeStyle=orthogonalEdgeStyle;rounded=0;orthogonalLoop=1;jettySize=auto;html=1;" edge="1" parent="1" source="h8VWl4SBBmZREgqOAzla-16" target="h8VWl4SBBmZREgqOAzla-26">
          <mxGeometry relative="1" as="geometry" />
        </mxCell>
        <mxCell id="h8VWl4SBBmZREgqOAzla-16" value="Menampilkan&amp;nbsp;&lt;div&gt;Data Profile Akun&lt;/div&gt;" style="shape=parallelogram;html=1;strokeWidth=2;perimeter=parallelogramPerimeter;whiteSpace=wrap;rounded=1;arcSize=12;size=0.23;" vertex="1" parent="1">
          <mxGeometry x="146" y="399" width="170" height="60" as="geometry" />
        </mxCell>
        <mxCell id="h8VWl4SBBmZREgqOAzla-22" value="END" style="strokeWidth=2;html=1;shape=mxgraph.flowchart.terminator;whiteSpace=wrap;" vertex="1" parent="1">
          <mxGeometry x="21" y="510" width="100" height="60" as="geometry" />
        </mxCell>
        <mxCell id="h8VWl4SBBmZREgqOAzla-38" value="" style="edgeStyle=orthogonalEdgeStyle;rounded=0;orthogonalLoop=1;jettySize=auto;html=1;" edge="1" parent="1" source="h8VWl4SBBmZREgqOAzla-26" target="h8VWl4SBBmZREgqOAzla-28">
          <mxGeometry relative="1" as="geometry" />
        </mxCell>
        <mxCell id="h8VWl4SBBmZREgqOAzla-26" value="1. Absensi&lt;div&gt;2. E-Sertifikat&lt;/div&gt;&lt;div&gt;3. Logout&lt;/div&gt;" style="rounded=1;whiteSpace=wrap;html=1;absoluteArcSize=1;arcSize=14;strokeWidth=2;" vertex="1" parent="1">
          <mxGeometry x="353" y="379" width="100" height="100" as="geometry" />
        </mxCell>
        <mxCell id="h8VWl4SBBmZREgqOAzla-31" value="" style="edgeStyle=orthogonalEdgeStyle;rounded=0;orthogonalLoop=1;jettySize=auto;html=1;" edge="1" parent="1" source="h8VWl4SBBmZREgqOAzla-28" target="h8VWl4SBBmZREgqOAzla-30">
          <mxGeometry relative="1" as="geometry" />
        </mxCell>
        <mxCell id="h8VWl4SBBmZREgqOAzla-34" value="" style="edgeStyle=orthogonalEdgeStyle;rounded=0;orthogonalLoop=1;jettySize=auto;html=1;" edge="1" parent="1" source="h8VWl4SBBmZREgqOAzla-28" target="h8VWl4SBBmZREgqOAzla-33">
          <mxGeometry relative="1" as="geometry" />
        </mxCell>
        <mxCell id="h8VWl4SBBmZREgqOAzla-28" value="Absensi?" style="strokeWidth=2;html=1;shape=mxgraph.flowchart.decision;whiteSpace=wrap;" vertex="1" parent="1">
          <mxGeometry x="353" y="520" width="100" height="100" as="geometry" />
        </mxCell>
        <mxCell id="h8VWl4SBBmZREgqOAzla-45" style="edgeStyle=orthogonalEdgeStyle;rounded=0;orthogonalLoop=1;jettySize=auto;html=1;exitX=1;exitY=0.5;exitDx=0;exitDy=0;entryX=1;entryY=0.5;entryDx=0;entryDy=0;" edge="1" parent="1" source="h8VWl4SBBmZREgqOAzla-30" target="h8VWl4SBBmZREgqOAzla-26">
          <mxGeometry relative="1" as="geometry">
            <mxPoint x="690" y="430" as="targetPoint" />
            <Array as="points">
              <mxPoint x="690" y="570" />
              <mxPoint x="690" y="429" />
            </Array>
          </mxGeometry>
        </mxCell>
        <mxCell id="h8VWl4SBBmZREgqOAzla-30" value="Menampilkan&lt;div&gt;Page Absensi&lt;/div&gt;" style="shape=parallelogram;html=1;strokeWidth=2;perimeter=parallelogramPerimeter;whiteSpace=wrap;rounded=1;arcSize=12;size=0.23;" vertex="1" parent="1">
          <mxGeometry x="485" y="540" width="148" height="60" as="geometry" />
        </mxCell>
        <mxCell id="h8VWl4SBBmZREgqOAzla-32" value="Yes" style="text;html=1;align=center;verticalAlign=middle;resizable=0;points=[];autosize=1;strokeColor=none;fillColor=none;" vertex="1" parent="1">
          <mxGeometry x="453" y="539" width="40" height="30" as="geometry" />
        </mxCell>
        <mxCell id="h8VWl4SBBmZREgqOAzla-36" value="" style="edgeStyle=orthogonalEdgeStyle;rounded=0;orthogonalLoop=1;jettySize=auto;html=1;" edge="1" parent="1" source="h8VWl4SBBmZREgqOAzla-33" target="h8VWl4SBBmZREgqOAzla-35">
          <mxGeometry relative="1" as="geometry" />
        </mxCell>
        <mxCell id="h8VWl4SBBmZREgqOAzla-40" value="" style="edgeStyle=orthogonalEdgeStyle;rounded=0;orthogonalLoop=1;jettySize=auto;html=1;" edge="1" parent="1" source="h8VWl4SBBmZREgqOAzla-33" target="h8VWl4SBBmZREgqOAzla-39">
          <mxGeometry relative="1" as="geometry" />
        </mxCell>
        <mxCell id="h8VWl4SBBmZREgqOAzla-33" value="E-Sertifikat?" style="strokeWidth=2;html=1;shape=mxgraph.flowchart.decision;whiteSpace=wrap;" vertex="1" parent="1">
          <mxGeometry x="353" y="651" width="100" height="100" as="geometry" />
        </mxCell>
        <mxCell id="h8VWl4SBBmZREgqOAzla-44" style="edgeStyle=orthogonalEdgeStyle;rounded=0;orthogonalLoop=1;jettySize=auto;html=1;exitX=1;exitY=0.5;exitDx=0;exitDy=0;" edge="1" parent="1" source="h8VWl4SBBmZREgqOAzla-35">
          <mxGeometry relative="1" as="geometry">
            <mxPoint x="690" y="570" as="targetPoint" />
          </mxGeometry>
        </mxCell>
        <mxCell id="h8VWl4SBBmZREgqOAzla-35" value="Menampilkan&lt;div&gt;Page E-Sertifikat&lt;/div&gt;" style="shape=parallelogram;html=1;strokeWidth=2;perimeter=parallelogramPerimeter;whiteSpace=wrap;rounded=1;arcSize=12;size=0.23;" vertex="1" parent="1">
          <mxGeometry x="485" y="671" width="148" height="60" as="geometry" />
        </mxCell>
        <mxCell id="h8VWl4SBBmZREgqOAzla-37" value="Yes" style="text;html=1;align=center;verticalAlign=middle;resizable=0;points=[];autosize=1;strokeColor=none;fillColor=none;" vertex="1" parent="1">
          <mxGeometry x="453" y="669" width="40" height="30" as="geometry" />
        </mxCell>
        <mxCell id="h8VWl4SBBmZREgqOAzla-42" style="edgeStyle=elbowEdgeStyle;rounded=0;orthogonalLoop=1;jettySize=auto;html=1;exitX=0.5;exitY=1;exitDx=0;exitDy=0;exitPerimeter=0;" edge="1" parent="1" source="h8VWl4SBBmZREgqOAzla-39">
          <mxGeometry relative="1" as="geometry">
            <mxPoint x="360" y="200" as="targetPoint" />
            <Array as="points">
              <mxPoint x="760" y="190" />
              <mxPoint x="760" y="200" />
              <mxPoint x="760" y="530" />
            </Array>
          </mxGeometry>
        </mxCell>
        <mxCell id="h8VWl4SBBmZREgqOAzla-39" value="Logout?" style="strokeWidth=2;html=1;shape=mxgraph.flowchart.decision;whiteSpace=wrap;" vertex="1" parent="1">
          <mxGeometry x="353" y="784" width="100" height="100" as="geometry" />
        </mxCell>
        <mxCell id="h8VWl4SBBmZREgqOAzla-43" value="No" style="text;html=1;align=center;verticalAlign=middle;resizable=0;points=[];autosize=1;strokeColor=none;fillColor=none;" vertex="1" parent="1">
          <mxGeometry x="420" y="855" width="40" height="30" as="geometry" />
        </mxCell>
        <mxCell id="h8VWl4SBBmZREgqOAzla-46" value="No" style="text;html=1;align=center;verticalAlign=middle;resizable=0;points=[];autosize=1;strokeColor=none;fillColor=none;" vertex="1" parent="1">
          <mxGeometry x="400" y="618" width="40" height="30" as="geometry" />
        </mxCell>
        <mxCell id="h8VWl4SBBmZREgqOAzla-47" value="No" style="text;html=1;align=center;verticalAlign=middle;resizable=0;points=[];autosize=1;strokeColor=none;fillColor=none;" vertex="1" parent="1">
          <mxGeometry x="400" y="748" width="40" height="30" as="geometry" />
        </mxCell>
      </root>
    </mxGraphModel>
  </diagram>
  <diagram id="FA4bvvxYtBClE3o3RVnj" name="Page-2">
    <mxGraphModel grid="1" page="1" gridSize="10" guides="1" tooltips="1" connect="1" arrows="1" fold="1" pageScale="1" pageWidth="827" pageHeight="1169" math="0" shadow="0">
      <root>
        <mxCell id="0" />
        <mxCell id="1" parent="0" />
      </root>
    </mxGraphModel>
  </diagram>
</mxfile>
